<?xml version="1.0" standalone="no"?>
<!DOCTYPE svg PUBLIC "-//W3C//DTD SVG 20010904//EN"
 "http://www.w3.org/TR/2001/REC-SVG-20010904/DTD/svg10.dtd">
<svg version="1.0" xmlns="http://www.w3.org/2000/svg"
 width="662.000000pt" height="662.000000pt" viewBox="0 0 662.000000 662.000000"
 preserveAspectRatio="xMidYMid meet">
<metadata>
Created by potrace 1.14, written by Peter Selinger 2001-2017
</metadata>
<g transform="translate(0.000000,662.000000) scale(0.100000,-0.100000)"
fill="#000000" stroke="none">
<path d="M1772 6602 c-4 -9 -17 -18 -30 -19 -13 -2 -21 1 -18 6 4 5 -3 7 -14
4 -11 -3 -20 -9 -20 -13 0 -4 -7 -10 -14 -13 -11 -4 -13 -1 -9 10 5 13 3 14
-16 4 -12 -7 -26 -9 -31 -6 -6 3 -10 1 -10 -5 0 -6 -8 -10 -17 -9 -33 3 -44
-1 -37 -13 5 -7 3 -8 -7 -2 -21 13 -41 12 -68 -4 -13 -8 -20 -9 -17 -3 5 7 -2
10 -18 9 -15 -1 -26 -7 -26 -13 0 -5 -5 -3 -10 5 -7 11 -10 11 -10 2 0 -7 -4
-11 -8 -8 -4 2 -14 1 -22 -4 -8 -5 -22 -5 -32 1 -12 6 -18 6 -18 0 0 -6 -7 -7
-17 -4 -10 4 -14 2 -10 -4 5 -7 0 -9 -13 -6 -11 3 -20 0 -20 -6 0 -5 -6 -8
-14 -5 -8 3 -17 1 -20 -5 -11 -18 -15 -71 -5 -71 5 0 9 -9 9 -21 0 -13 4 -18
13 -13 9 6 9 5 0 -7 -10 -12 -10 -18 0 -29 10 -10 9 -11 -3 -5 -12 6 -13 5 -2
-6 6 -7 12 -26 12 -41 0 -15 5 -28 11 -28 8 0 8 -5 -1 -15 -9 -11 -9 -15 -1
-15 19 0 9 -70 -11 -81 -10 -5 -18 -6 -18 -2 0 4 -5 1 -10 -7 -8 -12 -10 -12
-10 -1 0 11 -3 11 -15 1 -8 -7 -24 -10 -35 -7 -11 3 -20 0 -20 -6 0 -6 -3 -7
-7 -4 -3 4 -13 1 -21 -6 -13 -10 -14 -9 -7 3 7 12 6 13 -7 3 -8 -7 -19 -9 -23
-5 -5 4 -5 1 -1 -5 5 -8 1 -13 -9 -13 -11 0 -15 -5 -11 -16 3 -8 2 -13 -3 -10
-5 3 -11 -1 -15 -9 -3 -8 -1 -15 4 -15 12 0 9 -22 -5 -32 -6 -5 -5 -8 4 -8 11
0 11 -3 1 -15 -9 -10 -9 -15 -1 -15 13 0 10 -22 -4 -32 -6 -5 -5 -8 4 -8 11 0
11 -3 1 -15 -7 -9 -8 -15 -2 -15 12 0 10 -18 -4 -43 -10 -17 -12 -16 -37 9
-15 15 -27 32 -27 38 0 6 -10 22 -21 36 -11 14 -17 18 -13 10 6 -12 5 -13 -7
-3 -20 16 -26 15 -47 -4 -10 -10 -28 -24 -40 -32 -11 -8 -18 -19 -15 -25 3 -6
3 -8 -2 -4 -9 9 -47 -10 -41 -20 3 -5 -5 -9 -17 -9 -11 -1 -25 -9 -29 -18 -5
-8 -16 -15 -23 -15 -8 0 -15 -8 -15 -17 0 -9 -2 -14 -5 -11 -6 5 -94 -77 -94
-88 0 -2 -12 -15 -26 -28 -14 -13 -25 -29 -25 -35 0 -7 -4 -9 -10 -6 -9 6 -14
-8 -11 -27 0 -5 -6 -8 -15 -8 -8 0 -12 -5 -9 -10 3 -6 -1 -13 -9 -16 -9 -3
-16 -12 -16 -19 0 -8 -9 -17 -21 -20 -14 -5 -19 -13 -16 -26 3 -10 1 -17 -4
-13 -5 3 -9 -2 -9 -10 0 -9 -6 -16 -12 -16 -9 0 -8 -3 2 -10 12 -8 12 -10 -3
-16 -9 -3 -14 -10 -11 -15 3 -5 0 -9 -6 -9 -7 0 -10 -7 -6 -15 3 -9 0 -15 -10
-15 -10 0 -14 -6 -10 -15 3 -8 1 -15 -5 -15 -6 0 -8 -4 -4 -9 3 -5 1 -12 -4
-16 -5 -3 -8 -14 -6 -25 2 -11 -1 -19 -8 -17 -7 1 -13 -5 -13 -13 -1 -8 -3
-18 -4 -22 -1 -5 -4 -11 -5 -15 -1 -5 -8 -22 -14 -40 -7 -18 -12 -35 -11 -39
1 -3 -7 -12 -17 -21 -10 -8 -11 -11 -3 -7 12 7 13 5 3 -8 -7 -8 -9 -19 -5 -23
4 -5 1 -5 -5 -1 -13 7 -17 -4 -14 -31 1 -7 -3 -13 -10 -13 -8 0 -8 -4 1 -15 9
-11 9 -15 1 -15 -7 0 -10 -4 -6 -9 3 -5 1 -12 -5 -16 -6 -3 -8 -17 -6 -31 3
-14 1 -22 -5 -19 -5 4 -9 3 -10 -2 0 -4 -2 -19 -3 -33 -2 -14 2 -28 8 -32 7
-5 4 -8 -7 -8 -10 0 -15 -4 -12 -10 3 -5 3 -10 -2 -10 -4 0 -9 -16 -11 -36 -1
-25 1 -33 10 -29 7 4 5 0 -4 -8 -10 -8 -15 -17 -11 -20 3 -4 0 -13 -6 -21 -9
-10 -9 -16 -1 -21 8 -5 7 -11 -2 -23 -11 -13 -11 -14 1 -7 11 6 13 4 6 -11
-14 -30 -16 -254 -2 -254 6 0 2 -7 -9 -15 -12 -9 -14 -14 -5 -15 7 0 11 -6 8
-14 -5 -14 26 -33 44 -28 4 1 9 -8 12 -18 3 -11 1 -20 -5 -20 -6 0 -8 -9 -5
-20 3 -11 1 -18 -4 -14 -8 5 -13 -9 -10 -28 0 -5 -3 -8 -7 -8 -5 0 -10 -17
-11 -37 -1 -21 -3 -50 -3 -65 -1 -16 -6 -28 -11 -28 -4 0 -5 -6 0 -12 4 -7 9
-21 10 -30 3 -20 39 -86 57 -104 9 -8 17 -9 23 -3 6 6 10 4 10 -6 0 -8 -4 -15
-8 -15 -4 0 -11 -10 -15 -22 -4 -13 -12 -26 -17 -30 -6 -4 -12 -19 -13 -35 -2
-31 25 -85 38 -77 4 3 8 -2 8 -11 0 -9 5 -13 10 -10 6 3 13 -1 16 -9 3 -9 12
-16 20 -16 8 0 14 -4 14 -10 0 -5 7 -10 15 -10 8 0 15 -5 15 -11 0 -5 4 -8 9
-4 5 3 12 1 15 -4 4 -5 17 -8 31 -7 13 2 22 -1 19 -5 -3 -5 1 -9 9 -9 24 0 30
-31 7 -37 -11 -3 -18 -9 -15 -13 3 -5 -4 -11 -15 -15 -11 -4 -18 -11 -15 -16
4 -5 1 -9 -4 -9 -6 0 -11 -5 -11 -11 0 -6 -14 -24 -30 -41 -17 -16 -28 -34
-24 -39 3 -5 0 -9 -6 -9 -6 0 -8 -5 -5 -10 3 -6 2 -10 -4 -10 -6 0 -14 -12
-17 -26 -4 -17 -9 -22 -14 -14 -6 9 -10 6 -15 -9 -3 -11 -11 -21 -17 -21 -6 0
-8 -9 -5 -19 3 -11 -1 -22 -8 -25 -8 -3 -12 -18 -11 -35 1 -17 0 -29 -2 -27
-8 9 -40 -28 -35 -40 3 -8 0 -14 -7 -14 -7 0 -10 -7 -6 -16 3 -9 2 -12 -5 -8
-7 4 -9 -3 -7 -17 1 -13 -4 -32 -12 -42 -8 -10 -15 -21 -16 -25 0 -4 -4 -15
-8 -25 -5 -9 -6 -26 -3 -37 3 -13 1 -18 -6 -13 -7 4 -8 0 -4 -11 4 -10 3 -15
-3 -11 -6 3 -10 -1 -10 -9 0 -9 -5 -16 -11 -16 -5 0 -7 -4 -4 -10 3 -5 0 -10
-7 -10 -9 0 -9 -3 2 -10 13 -9 13 -10 0 -10 -13 0 -13 -1 0 -10 11 -7 11 -10
2 -10 -7 0 -10 -5 -7 -10 3 -6 2 -10 -3 -10 -5 0 -8 -11 -7 -25 2 -14 -1 -25
-7 -25 -6 0 -8 -7 -5 -15 4 -8 1 -17 -5 -21 -7 -4 -6 -9 3 -15 9 -5 9 -9 3 -9
-16 0 -25 -38 -10 -44 7 -3 7 -5 -2 -5 -7 -1 -10 -5 -7 -11 3 -5 1 -10 -6 -10
-8 0 -8 -4 1 -15 10 -12 10 -15 0 -15 -7 0 -10 -7 -6 -15 3 -8 0 -15 -7 -15
-8 0 -6 -4 3 -10 8 -5 10 -10 4 -10 -12 0 -13 -4 -20 -88 -3 -34 -2 -62 3 -61
21 4 33 -2 33 -17 0 -10 6 -14 15 -10 8 3 15 1 15 -4 0 -6 6 -10 14 -10 8 0
16 -5 18 -11 2 -6 24 -11 48 -12 54 -1 65 -11 65 -57 0 -22 5 -34 13 -33 7 2
11 -3 9 -10 -1 -6 4 -11 11 -10 6 2 12 -1 12 -6 0 -4 11 -6 25 -3 14 2 22 9
18 15 -3 6 -1 7 6 3 6 -4 8 -12 5 -18 -5 -7 -1 -9 9 -5 10 4 17 2 17 -5 0 -7
4 -7 14 1 10 8 16 9 21 1 3 -5 17 -10 29 -10 13 0 29 -7 36 -15 7 -8 9 -15 5
-15 -4 0 -2 -6 4 -14 10 -11 9 -16 -4 -24 -9 -5 -18 -20 -18 -34 -1 -15 -5
-24 -9 -22 -4 2 -9 0 -13 -6 -3 -5 0 -10 7 -10 8 0 9 -3 3 -8 -11 -8 -16 -25
-19 -59 0 -13 -5 -23 -9 -23 -5 0 -5 -5 -2 -10 3 -6 2 -10 -4 -10 -6 0 -8 -7
-4 -16 3 -9 0 -20 -8 -25 -10 -6 -10 -9 -2 -9 9 0 10 -7 3 -25 -7 -18 -6 -25
3 -25 8 0 9 -3 1 -8 -14 -9 -24 -62 -13 -62 5 0 9 -5 9 -11 0 -5 -5 -7 -12 -3
-8 5 -9 2 -5 -9 3 -10 2 -17 -3 -17 -6 0 -6 -9 0 -24 5 -15 5 -27 -2 -34 -8
-8 -8 -15 0 -25 9 -10 9 -16 0 -25 -9 -9 -9 -12 0 -12 6 0 9 -6 6 -13 -3 -8 0
-26 5 -40 6 -15 7 -27 2 -27 -5 0 -7 -9 -4 -20 3 -11 10 -20 15 -20 5 0 6 -5
3 -10 -4 -6 -2 -17 4 -24 9 -10 8 -15 -4 -20 -8 -3 -15 -13 -15 -23 0 -12 -3
-14 -11 -6 -8 8 -18 4 -36 -13 -14 -13 -30 -21 -36 -17 -7 4 -8 0 -3 -12 6
-16 4 -16 -11 -4 -9 8 -14 9 -10 3 4 -7 0 -15 -9 -18 -14 -5 -14 -9 -3 -23 8
-9 9 -14 3 -10 -7 4 -14 0 -18 -8 -3 -8 0 -15 7 -15 8 0 9 -2 1 -8 -15 -10
-16 -75 -1 -65 6 3 0 -9 -13 -27 -13 -18 -17 -30 -9 -25 11 7 12 6 4 -6 -6 -8
-10 -40 -9 -71 1 -37 -3 -58 -10 -58 -6 0 -3 -7 7 -14 10 -8 19 -18 20 -23 0
-4 12 -19 25 -33 14 -14 21 -18 17 -10 -4 8 3 4 14 -10 13 -16 21 -20 21 -11
0 11 6 9 20 -7 20 -21 27 -37 13 -29 -5 3 -9 -6 -9 -19 -1 -13 2 -24 8 -24 5
0 7 -4 4 -9 -3 -5 1 -11 9 -15 8 -3 15 -12 15 -20 0 -9 7 -13 20 -11 11 2 20
0 20 -5 0 -4 10 -6 22 -2 14 3 19 2 14 -6 -4 -7 -2 -12 4 -12 7 0 9 -8 5 -21
-6 -17 -4 -20 6 -13 8 4 2 -8 -13 -28 -15 -19 -24 -38 -21 -42 4 -3 0 -6 -8
-6 -11 0 -11 -2 1 -10 13 -8 12 -10 -3 -10 -10 0 -15 -5 -12 -11 4 -5 -1 -19
-11 -30 -9 -10 -13 -19 -8 -19 5 0 1 -5 -9 -11 -9 -6 -15 -14 -12 -20 4 -5 -1
-9 -9 -9 -9 0 -15 -3 -15 -7 3 -18 -14 -73 -23 -73 -5 0 -6 -4 -3 -10 3 -5 1
-10 -6 -10 -7 0 -9 -3 -6 -7 4 -3 2 -12 -4 -20 -6 -7 -8 -13 -5 -13 4 0 0 -7
-8 -16 -9 -8 -16 -24 -16 -35 0 -11 -4 -17 -10 -14 -6 3 -7 -1 -4 -9 3 -9 1
-16 -4 -16 -6 0 -9 -9 -7 -20 2 -11 -1 -20 -6 -20 -6 0 -7 -4 -4 -10 3 -5 2
-10 -4 -10 -5 0 -8 -16 -7 -35 2 -19 0 -38 -5 -40 -4 -3 -5 -13 -2 -22 4 -9 2
-14 -3 -10 -5 3 -10 -3 -10 -13 0 -10 3 -17 7 -14 4 2 10 -3 13 -12 3 -8 2
-13 -3 -10 -4 3 -13 -6 -19 -19 -10 -21 -9 -25 6 -25 10 0 13 -3 6 -8 -6 -4
-9 -16 -7 -27 3 -11 4 -28 4 -37 0 -10 6 -18 12 -18 8 0 8 -3 2 -8 -13 -9 -18
-32 -7 -32 4 0 9 -14 10 -32 2 -18 8 -36 15 -40 20 -12 727 -7 724 6 -1 6 4
10 11 8 6 -1 11 1 10 5 -3 8 54 69 59 65 6 -4 73 33 73 40 0 5 4 7 9 4 13 -9
83 23 76 34 -9 15 2 12 20 -6 10 -10 13 -24 9 -36 -4 -15 -3 -18 6 -13 9 6 9
3 1 -13 -13 -25 -14 -35 -3 -28 11 6 9 -25 -2 -43 -5 -8 -3 -16 5 -21 22 -14
4087 -10 4085 3 -1 7 -5 18 -9 24 -5 7 -6 13 -2 13 3 0 1 9 -5 20 -8 14 -8 20
0 20 6 0 8 5 5 10 -4 6 -10 8 -14 5 -5 -2 -6 6 -4 19 3 13 -2 30 -11 39 -18
18 -21 47 -5 47 5 0 7 4 4 10 -3 5 6 12 20 16 14 3 25 11 25 17 0 6 3 8 6 4 4
-3 29 3 58 13 56 22 69 25 46 10 -9 -6 -10 -10 -3 -10 7 0 17 8 22 18 6 9 11
13 11 9 0 -5 7 -1 16 8 20 19 27 87 11 97 -8 5 -6 8 6 8 9 0 17 6 17 13 0 8 3
8 9 -2 5 -8 16 -11 25 -8 12 5 15 18 13 52 -1 25 1 45 6 45 4 0 5 5 2 10 -4 6
-1 18 7 27 11 14 11 16 -1 8 -10 -5 -12 -4 -7 3 9 14 46 16 46 2 0 -5 7 -7 15
-4 8 4 15 1 15 -5 0 -6 6 -8 14 -5 8 3 17 1 21 -5 4 -8 12 -8 26 -1 13 8 19 7
19 0 0 -8 6 -8 20 0 15 8 20 8 20 -1 0 -8 4 -9 13 0 10 8 17 7 25 -1 9 -9 12
-9 12 1 0 10 3 11 14 2 10 -8 16 -9 21 -1 4 7 12 7 25 0 13 -7 21 -7 25 0 5 8
11 7 21 -1 11 -9 14 -9 14 1 0 10 3 10 15 0 12 -10 15 -10 15 0 0 10 3 10 15
0 12 -10 15 -10 15 1 0 12 2 12 9 0 6 -9 10 -10 16 -2 5 9 10 9 21 0 11 -9 14
-9 14 1 0 10 3 10 15 0 12 -10 15 -10 15 0 0 10 3 10 14 1 11 -9 15 -9 19 1 4
10 6 10 6 -1 1 -11 4 -11 16 -1 12 10 15 10 15 0 0 -10 3 -10 14 -1 11 9 15 9
18 0 3 -8 12 -4 27 12 19 21 21 21 15 4 l-7 -20 23 20 c13 11 20 14 16 7 -4
-6 -2 -12 3 -12 6 0 11 5 11 11 0 5 5 7 10 4 6 -3 10 -2 10 4 0 6 7 8 15 5 9
-4 15 0 15 7 0 12 2 12 9 0 6 -9 11 -10 15 -2 4 6 12 9 17 6 5 -4 9 -1 9 5 0
6 5 8 10 5 6 -3 10 -1 10 4 0 6 3 10 8 9 13 -2 42 14 37 22 -3 4 1 8 8 7 32
-1 47 4 45 16 -2 7 6 11 20 9 17 -3 22 2 22 18 0 12 5 18 10 15 6 -3 10 -1 10
5 0 7 7 9 16 6 8 -3 13 -2 10 2 -3 5 4 15 15 22 19 14 19 34 19 1063 0 576 -4
1046 -9 1043 -4 -3 -7 7 -5 21 1 15 0 32 -4 38 -6 9 -10 39 -13 93 -1 12 -5
22 -9 22 -4 0 -6 16 -4 35 1 19 -2 33 -7 30 -5 -4 -5 3 0 17 4 13 5 32 1 43
-4 11 -6 23 -3 28 2 4 -1 7 -7 7 -8 0 -7 6 1 21 9 17 8 20 -3 13 -11 -6 -11
-5 1 9 11 14 11 17 0 17 -9 0 -10 3 -4 8 15 10 17 32 3 32 -6 0 -8 3 -5 7 4 3
2 12 -4 20 -9 10 -8 13 2 13 11 0 11 2 -1 10 -11 7 -11 10 -2 10 10 0 10 5 2
20 -8 15 -8 20 2 20 9 0 9 3 -2 10 -8 5 -10 10 -3 10 13 0 6 37 -11 59 -8 11
-8 13 2 7 6 -4 12 -2 12 3 0 6 -6 11 -12 11 -9 0 -8 4 2 10 13 9 13 10 0 10
-13 0 -13 1 0 10 12 7 12 10 1 10 -7 0 -11 6 -7 15 3 8 0 15 -7 15 -8 0 -8 3
2 9 11 7 11 9 0 14 -11 4 -11 6 -1 6 9 1 10 6 2 20 -7 14 -7 20 1 23 8 3 7 9
-3 19 -8 8 -14 24 -13 37 1 12 -2 22 -6 22 -5 0 -6 7 -2 16 3 9 0 20 -8 25
-12 7 -12 9 1 9 13 0 13 2 1 9 -12 8 -12 12 -2 24 7 9 8 16 2 19 -5 1 -11 31
-13 66 -2 34 -5 62 -8 62 -3 0 -7 10 -8 23 0 12 -2 39 -4 60 -1 20 -6 37 -10
37 -4 0 -3 12 2 26 7 16 7 23 0 19 -6 -3 -10 5 -10 19 0 14 -5 28 -11 31 -6 4
-8 13 -5 21 3 8 1 14 -3 14 -5 0 -7 9 -4 20 3 11 1 20 -5 20 -6 0 -9 9 -7 20
2 11 -1 22 -6 25 -5 4 -7 11 -4 16 4 5 0 11 -7 14 -9 4 -14 20 -13 45 1 22 -2
40 -5 40 -4 0 -6 12 -5 28 1 15 -5 36 -14 46 -13 16 -13 18 -1 12 8 -4 6 0 -4
8 -11 9 -15 16 -10 16 6 0 11 7 11 15 0 8 -4 15 -9 15 -4 0 -7 3 -7 8 4 16
-14 92 -21 92 -5 0 -6 10 -2 22 3 12 1 19 -4 15 -5 -3 -9 10 -8 29 1 19 -3 34
-8 34 -6 0 -7 11 -4 24 3 14 1 28 -5 31 -6 4 -8 13 -5 21 3 8 1 14 -4 14 -6 0
-10 9 -10 21 0 11 -4 18 -9 15 -5 -4 -7 3 -4 14 4 15 0 20 -13 21 -11 0 -13 3
-7 6 9 3 10 10 3 22 -5 10 -6 22 -2 26 4 5 -2 5 -13 1 -15 -6 -17 -4 -8 5 9 9
8 17 -4 35 -10 16 -11 24 -4 24 8 0 8 4 -1 14 -7 8 -16 12 -21 9 -4 -2 -7 -1
-6 4 3 17 -14 53 -22 47 -5 -3 -6 2 -3 10 3 9 1 16 -4 16 -6 0 -12 10 -14 23
-2 12 -9 21 -17 19 -12 -3 -12 0 -2 12 11 13 10 17 -3 22 -9 3 -13 10 -10 15
3 5 1 9 -4 9 -5 0 -12 14 -16 30 -3 17 -9 29 -13 28 -5 -2 -9 0 -10 5 -2 4
-13 18 -26 30 -13 12 -22 28 -20 35 3 6 -2 12 -11 12 -9 0 -16 7 -16 16 0 10
-6 14 -14 11 -9 -4 -12 0 -9 11 2 10 -4 26 -15 37 -10 11 -17 26 -14 33 2 6
-4 12 -13 12 -9 0 -13 5 -10 10 3 6 1 10 -4 10 -6 0 -11 7 -11 15 0 8 -5 14
-12 12 -7 -1 -12 5 -13 13 0 8 -14 24 -32 35 -18 11 -32 27 -33 35 0 13 -1 13
-10 0 -8 -12 -10 -11 -10 6 0 12 -11 26 -25 34 -14 7 -23 15 -20 18 2 3 -9 17
-25 32 -16 15 -27 30 -24 32 3 3 -7 8 -21 12 -14 4 -25 11 -25 17 0 6 -5 7
-12 3 -6 -4 -8 -3 -5 3 7 11 -61 70 -76 65 -5 -1 -6 1 -4 5 9 14 -21 46 -34
37 -7 -4 -10 -3 -6 2 8 14 -20 47 -34 38 -8 -4 -10 -3 -5 5 4 6 0 14 -8 17 -9
3 -14 9 -11 14 2 4 -7 13 -20 20 -14 7 -25 17 -25 22 0 5 -4 7 -9 4 -5 -3 -11
1 -15 9 -3 8 -13 15 -21 15 -9 0 -13 5 -10 10 3 6 -1 10 -10 10 -9 0 -13 5
-10 10 3 6 0 10 -8 10 -7 0 -27 13 -43 30 -16 16 -35 30 -41 30 -7 0 -13 7
-13 16 0 10 -6 14 -14 11 -8 -3 -27 6 -43 21 -15 15 -32 27 -36 27 -5 0 -14 7
-20 15 -7 8 -19 16 -26 18 -8 2 -22 12 -31 22 -10 11 -20 17 -24 13 -3 -3 -6
-1 -6 5 0 7 -6 12 -14 12 -8 0 -17 7 -20 16 -3 8 -10 13 -15 9 -5 -3 -21 6
-36 21 -23 23 -38 30 -67 33 -5 1 -8 7 -8 15 0 8 -8 13 -17 12 -10 -2 -24 3
-31 11 -8 7 -18 11 -23 8 -5 -4 -9 -1 -9 4 0 6 -8 11 -18 11 -10 0 -24 6 -31
13 -11 10 -12 9 -6 -3 6 -11 3 -10 -12 3 -11 9 -23 14 -26 10 -4 -3 -7 0 -7 8
0 11 -2 11 -10 -1 -7 -11 -10 -11 -10 -2 0 7 -5 10 -10 7 -6 -4 -10 -3 -9 2 4
26 -1 35 -15 24 -11 -9 -17 -8 -30 4 -8 9 -18 16 -21 15 -3 0 -7 1 -10 1 -3 1
-9 3 -15 4 -5 1 -14 3 -20 4 -5 0 -10 8 -10 17 0 8 -4 13 -8 10 -5 -3 -21 1
-36 9 -14 8 -24 10 -21 4 4 -5 -10 0 -30 11 -40 22 -49 25 -40 10 4 -6 -10 -1
-30 10 -20 11 -40 18 -45 15 -5 -3 -16 2 -24 11 -12 11 -16 12 -16 2 0 -9 -3
-9 -8 -2 -4 6 -19 10 -34 10 -14 -1 -24 2 -22 6 2 3 0 9 -6 13 -5 3 -10 1 -10
-4 0 -13 -20 -10 -37 6 -14 13 -1193 17 -1193 4 0 -4 -6 -8 -12 -9 -40 -3 -83
-15 -86 -23 -2 -6 -10 -5 -18 2 -11 9 -14 9 -14 -1 0 -7 -7 -10 -15 -6 -8 3
-15 1 -15 -5 0 -6 -8 -9 -17 -8 -34 3 -44 -1 -37 -13 5 -9 2 -9 -9 1 -13 11
-17 11 -17 1 0 -8 -3 -10 -7 -7 -3 4 -12 2 -20 -4 -10 -9 -13 -8 -13 2 -1 10
-3 9 -10 -3 -7 -10 -17 -14 -32 -10 -16 4 -19 2 -13 -8 6 -9 4 -11 -5 -5 -8 5
-18 1 -27 -10 -7 -11 -13 -14 -13 -8 0 6 -9 9 -20 6 -11 -3 -20 -13 -20 -22 0
-11 -3 -12 -8 -4 -5 8 -18 6 -47 -8 -22 -11 -50 -21 -64 -24 -13 -2 -27 -9
-31 -15 -4 -7 -10 -10 -13 -8 -4 1 -15 -4 -25 -13 -10 -8 -23 -14 -30 -11 -7
2 -12 -2 -12 -9 0 -7 -3 -9 -7 -6 -3 4 -15 -1 -26 -10 -11 -10 -17 -12 -13 -5
4 7 2 19 -4 27 -10 11 -10 15 -1 15 7 0 9 5 6 10 -3 6 -2 10 3 10 5 0 8 14 7
30 -1 17 1 30 5 30 4 0 5 11 2 25 -3 17 0 25 9 25 11 0 11 2 -1 10 -12 7 -12
10 -1 10 7 0 11 6 7 15 -3 8 -1 15 4 15 5 0 7 6 4 14 -4 12 -52 14 -270 14
-240 1 -266 -1 -272 -16z m4476 -4178 c-4 -3 -2 -19 2 -35 6 -20 5 -29 -3 -29
-9 0 -9 -2 -1 -8 6 -4 10 -15 8 -24 -1 -10 3 -18 9 -18 7 0 5 -5 -3 -10 -12
-8 -12 -10 -1 -10 8 0 12 -3 8 -6 -9 -10 14 -64 26 -57 6 4 7 1 1 -8 -5 -8 -7
-23 -6 -34 2 -17 1 -17 -7 -5 -7 9 -11 10 -11 3 0 -6 5 -15 10 -18 6 -4 8 -11
5 -16 -4 -5 0 -9 7 -9 10 0 10 -2 -1 -9 -11 -7 -10 -11 5 -20 11 -6 13 -11 7
-11 -14 0 -18 -30 -5 -30 8 0 12 -14 13 -53 0 -9 4 -15 8 -13 4 3 5 -9 3 -26
-4 -24 -2 -29 9 -23 11 6 12 5 2 -5 -9 -10 -10 -17 -2 -27 9 -10 8 -13 -1 -13
-9 0 -8 -6 4 -19 12 -14 14 -21 6 -26 -9 -5 -9 -10 -1 -18 6 -6 11 -19 11 -30
0 -12 4 -16 13 -11 8 5 8 2 -2 -9 -10 -13 -10 -17 -1 -17 7 0 10 -7 6 -15 -3
-8 -1 -15 3 -15 5 0 8 -8 6 -17 -1 -10 2 -23 7 -30 5 -7 5 -14 -2 -18 -7 -4
-7 -12 1 -26 6 -11 8 -27 5 -34 -3 -8 -1 -17 4 -20 5 -3 7 -12 3 -20 -3 -9 0
-22 6 -29 9 -10 9 -16 1 -21 -8 -5 -8 -11 -1 -19 6 -7 8 -16 4 -20 -12 -12
-14 -48 -2 -40 8 4 8 0 0 -15 -9 -16 -9 -21 1 -21 9 0 9 -3 2 -8 -17 -12 -23
-39 -11 -51 8 -8 8 -11 -2 -11 -7 0 -11 -6 -8 -15 4 -8 2 -17 -3 -20 -6 -4
-10 -11 -10 -16 0 -6 6 -7 13 -3 9 6 9 4 1 -7 -6 -8 -10 -22 -9 -32 2 -10 -1
-14 -8 -10 -6 4 -8 0 -4 -10 3 -8 -1 -21 -9 -27 -8 -7 -14 -21 -14 -31 0 -11
-5 -19 -11 -19 -5 0 -8 -4 -4 -9 3 -6 -3 -14 -12 -20 -10 -6 -14 -11 -10 -11
5 0 1 -7 -7 -16 -9 -8 -14 -20 -11 -25 4 -5 1 -9 -5 -9 -6 0 -9 -4 -5 -9 3 -5
-4 -13 -16 -16 -11 -4 -18 -9 -15 -12 5 -5 2 -9 -39 -56 -14 -15 -25 -25 -25
-22 0 3 -6 0 -14 -7 -8 -7 -12 -16 -9 -20 2 -5 -5 -8 -16 -8 -12 0 -21 -5 -21
-11 0 -5 -5 -7 -11 -3 -6 3 -15 0 -20 -7 -4 -8 -12 -14 -16 -15 -11 -1 -45
-14 -64 -24 -10 -5 -21 -4 -28 3 -8 8 -11 8 -11 -2 0 -7 -6 -11 -14 -8 -8 3
-17 -1 -20 -9 -4 -11 -10 -12 -25 -4 -11 5 -22 6 -25 2 -3 -5 -31 -10 -62 -11
-32 -1 -61 -4 -66 -7 -4 -3 -8 1 -8 8 0 8 -3 9 -8 3 -13 -19 -77 -27 -77 -10
0 6 3 9 7 8 5 -2 8 2 8 8 0 5 5 7 12 3 8 -5 9 -2 5 10 -4 10 -3 15 3 11 5 -3
29 15 54 40 25 25 42 45 38 45 -4 0 2 7 12 15 11 8 17 15 13 15 -3 0 5 12 18
26 14 15 22 31 18 37 -3 6 -1 7 5 3 7 -4 14 3 18 19 3 14 10 25 16 25 5 0 6 5
3 10 -3 6 1 13 9 16 9 3 13 10 10 15 -3 5 0 9 5 9 6 0 11 7 11 15 0 8 4 15 9
15 5 0 12 7 15 16 4 10 2 13 -7 9 -6 -4 -4 0 5 8 10 8 15 17 11 20 -3 4 -1 7
6 7 7 0 10 4 7 8 -3 5 4 23 15 41 11 18 14 29 7 25 -10 -6 -10 -4 0 9 8 9 10
22 6 28 -4 8 -3 9 4 5 7 -4 12 -2 12 3 0 20 3 26 19 39 12 10 12 12 1 6 -13
-7 -13 -6 -1 9 8 10 11 20 8 24 -4 3 -2 12 4 20 6 7 8 13 5 13 -4 0 0 10 8 21
8 12 12 27 10 34 -3 7 0 16 5 20 6 3 9 11 6 16 -4 5 0 9 7 9 9 0 9 3 -2 10
-10 6 -11 10 -2 10 6 0 12 9 12 20 0 11 5 20 10 20 7 0 7 7 0 20 -8 16 -8 20
2 18 8 -2 13 7 12 25 0 15 4 27 9 27 4 0 5 10 2 21 -5 15 -4 19 4 14 8 -4 12
4 11 27 0 52 5 92 14 106 4 7 6 25 4 41 -1 16 4 36 12 46 8 9 10 19 4 23 -13
10 -17 35 -4 27 9 -5 16 31 11 58 -1 4 3 17 9 27 8 15 8 20 -2 20 -10 0 -10 2
-1 8 8 5 12 29 10 65 -1 31 1 57 4 57 3 0 5 10 4 23 -1 12 2 28 8 35 6 8 6 12
-2 12 -9 0 -9 5 -1 20 8 14 8 20 0 20 -7 0 -8 6 -1 19 6 10 8 21 5 24 -8 8 5
27 18 27 6 0 9 -3 6 -6z m-5580 -333 c-2 -17 -1 -28 3 -25 12 7 17 -20 7 -38
-5 -11 -5 -18 1 -18 5 0 8 -8 6 -17 -1 -10 2 -24 8 -30 6 -9 6 -13 -2 -13 -9
0 -9 -5 -1 -20 6 -11 7 -20 3 -20 -4 0 -8 -45 -7 -100 0 -55 -3 -100 -6 -100
-4 0 -7 -7 -7 -15 0 -8 3 -15 7 -15 3 0 6 -9 6 -19 0 -11 -4 -17 -8 -15 -4 3
-8 -8 -8 -25 0 -16 -4 -33 -10 -36 -5 -3 -10 -1 -10 5 0 6 -4 9 -8 6 -5 -3 -9
0 -10 7 -4 51 -7 63 -14 74 -5 7 -5 14 2 18 8 5 7 11 -1 22 -10 12 -10 16 2
24 10 6 11 9 1 9 -7 0 -11 4 -7 9 3 5 0 13 -5 16 -8 5 -6 13 4 24 9 10 13 21
9 25 -11 10 -13 67 -2 61 5 -4 6 1 3 9 -3 9 -11 13 -18 9 -6 -3 -2 4 9 16 15
17 16 24 7 30 -10 6 -9 11 3 21 17 14 21 35 4 24 -6 -3 -4 5 6 19 10 17 13 27
6 32 -8 4 -8 12 0 27 8 16 8 23 -2 30 -11 8 -10 9 4 4 9 -3 17 -1 17 4 0 6 3
10 6 10 4 0 4 -13 2 -29z m559 -676 c48 -43 58 -50 68 -47 5 2 7 1 3 -3 -8 -9
16 -35 32 -35 6 0 9 -4 5 -9 -3 -5 3 -12 14 -16 11 -3 22 -13 25 -21 5 -13 1
-15 -19 -10 -17 4 -25 2 -25 -6 0 -9 -3 -9 -8 -3 -4 6 -16 12 -27 13 -51 5
-61 8 -73 22 -8 8 -11 9 -7 3 3 -7 1 -13 -5 -13 -5 0 -20 6 -33 13 -12 6 -24
13 -25 14 -2 1 -5 15 -6 32 -2 23 1 28 11 20 9 -8 11 -6 8 11 -2 12 2 23 10
27 8 3 15 9 15 15 0 5 -5 6 -12 2 -7 -4 -8 -3 -4 4 9 15 25 11 53 -13z m-137
-309 c0 5 4 3 9 -4 7 -12 24 -18 61 -22 11 -1 12 -3 2 -7 -10 -4 -10 -8 -2
-19 10 -11 6 -13 -17 -11 -20 1 -27 -2 -25 -13 3 -12 1 -13 -9 -2 -7 6 -19 12
-27 12 -8 0 -10 -5 -6 -12 5 -9 2 -9 -9 1 -9 7 -17 10 -17 6 0 -4 -8 -1 -17 6
-11 10 -14 10 -9 2 8 -15 5 -16 -18 -7 -14 5 -14 9 -4 22 7 9 8 13 3 10 -6 -4
-11 2 -11 12 0 10 5 18 11 17 5 -1 9 4 7 12 -2 8 3 11 12 8 9 -4 18 -2 22 4 4
6 13 4 25 -7 10 -9 19 -13 19 -8z m607 -128 c7 -5 17 -7 23 -3 5 3 10 0 10 -7
0 -9 3 -9 10 2 7 12 10 12 10 1 0 -7 6 -11 15 -7 8 3 15 1 15 -4 0 -5 7 -7 15
-4 9 4 15 0 15 -7 1 -9 6 -7 15 5 14 18 20 15 16 -8 -1 -5 5 -4 13 4 12 9 16
9 16 1 0 -7 5 -9 10 -6 6 4 7 12 3 18 -4 7 0 7 10 -1 9 -8 21 -11 27 -7 5 3
10 0 10 -7 0 -11 2 -10 9 0 7 11 9 11 14 -2 4 -9 2 -16 -4 -16 -6 0 -8 -4 -4
-9 3 -5 -4 -12 -15 -16 -11 -4 -18 -10 -16 -14 3 -4 -4 -15 -14 -24 -11 -9
-22 -13 -24 -8 -9 13 -41 6 -80 -19 -38 -23 -39 -23 -52 -5 -8 10 -14 23 -14
28 0 4 -5 5 -10 2 -6 -4 -10 -3 -9 2 4 15 -13 43 -25 43 -13 0 -48 64 -40 72
8 8 39 5 51 -4z"/>
</g>
</svg>
